# xmcd
#
# Track frame offsets: 
#        150
#        18652
#        38034
#        56751
#        77322
#        94658
#        110583
#        137799
#
# Disc length: 2114 seconds
#
# Revision: 0
# Processed by: cddbd v1.5.2PL0 Copyright (c) Steve Scherf et al.
# Submitted via: ExactAudioCopy v1.0b3
#
DISCID=60084008
DTITLE=Kei Takebuchi - KEI's 8
DYEAR=2014
DGENRE=JPop
TTITLE0=ありがとう
TTITLE1=ブルーラブソング
TTITLE2=ドロシー
TTITLE3=cotton snow
TTITLE4=MERMAID
TTITLE5=ごめんねなんて言わない
TTITLE6=車輪の唄
TTITLE7=舞花～my flower～
EXTD=
EXTT0=
EXTT1=
EXTT2=
EXTT3=
EXTT4=
EXTT5=
EXTT6=
EXTT7=
PLAYORDER=
